<?xml version="1.0" encoding="utf-8"?>
<!-- Uploaded to: SVG Repo, www.svgrepo.com, Generator: SVG Repo Mixer Tools -->
<svg width="800px" height="800px" viewBox="0 -7.23 137.81 137.81" xmlns="http://www.w3.org/2000/svg">
  <g id="cinema" transform="translate(-222.734 -388.72)">
    <g id="Group_1922" data-name="Group 1922">
      <path id="Rectangle_1759" data-name="Rectangle 1759" d="M8.749,0h117.92a8.748,8.748,0,0,1,8.748,8.748V110.266a8.748,8.748,0,0,1-8.748,8.748H8.749A8.749,8.749,0,0,1,0,110.265V8.749A8.749,8.749,0,0,1,8.749,0Z" transform="translate(223.931 388.72)" fill="#483b44"/>
    </g>
    <g id="Group_1923" data-name="Group 1923">
      <path id="Path_4508" data-name="Path 4508" d="M223.931,397.467V498.985a8.774,8.774,0,0,0,8.749,8.749h8.276c-.419-5.379-1.323-12.4-1.429-16.767a30.978,30.978,0,0,0-3.509-14.08c-.937-2.076.6-4.816,1.429-6.067,9.417-12.733,18.822-39.838,18.618-60.457a100.669,100.669,0,0,0-2.46-21.643H232.68A8.774,8.774,0,0,0,223.931,397.467Z" fill="#bc2a38"/>
      <path id="Path_4509" data-name="Path 4509" d="M223.931,397.467V498.985a8.774,8.774,0,0,0,8.749,8.749h1.6c-.325-5.355-1-12.264-1.085-16.586a38.518,38.518,0,0,0-2.687-14.079c-.718-2.078.456-4.815,1.1-6.066,7.211-12.734,14.415-39.838,14.26-60.458a130.412,130.412,0,0,0-1.914-21.825H232.68A8.774,8.774,0,0,0,223.931,397.467Z" fill="#ed4d55"/>
      <path id="Path_4510" data-name="Path 4510" d="M223.931,397.467V498.985a8.779,8.779,0,0,0,6.092,8.33c-.231-5.2-.637-11.552-.687-15.621a55.234,55.234,0,0,0-1.806-14.079c-.481-2.076.308-4.815.737-6.065,4.842-12.735,9.678-39.839,9.574-60.458a191.454,191.454,0,0,0-1.352-22.372H232.68A8.774,8.774,0,0,0,223.931,397.467Z" fill="#f9b968"/>
    </g>
    <g id="Group_1924" data-name="Group 1924">
      <path id="Path_4511" data-name="Path 4511" d="M359.349,397.467V498.985a8.774,8.774,0,0,1-8.749,8.749h-8.278c.419-5.379,1.325-12.4,1.431-16.767a30.952,30.952,0,0,1,3.509-14.08c.936-2.076-.6-4.816-1.43-6.067-9.417-12.733-18.821-39.838-18.619-60.457a100.8,100.8,0,0,1,2.46-21.643H350.6A8.774,8.774,0,0,1,359.349,397.467Z" fill="#bc2a38"/>
      <path id="Path_4512" data-name="Path 4512" d="M359.349,397.467V498.985a8.774,8.774,0,0,1-8.749,8.749H349c.325-5.355,1-12.264,1.084-16.586a38.561,38.561,0,0,1,2.687-14.079c.718-2.078-.456-4.815-1.093-6.066-7.214-12.734-14.417-39.838-14.263-60.458a130.3,130.3,0,0,1,1.916-21.825H350.6A8.774,8.774,0,0,1,359.349,397.467Z" fill="#ed4d55"/>
      <path id="Path_4513" data-name="Path 4513" d="M359.349,397.467V498.985a8.781,8.781,0,0,1-6.092,8.33c.229-5.2.636-11.552.687-15.621a55.216,55.216,0,0,1,1.8-14.079c.481-2.076-.306-4.815-.735-6.065-4.843-12.735-9.68-39.839-9.576-60.458a191.206,191.206,0,0,1,1.354-22.372H350.6A8.774,8.774,0,0,1,359.349,397.467Z" fill="#f9b968"/>
    </g>
    <g id="Group_1929" data-name="Group 1929">
      <g id="Group_1925" data-name="Group 1925">
        <path id="Rectangle_1760" data-name="Rectangle 1760" d="M5.469,0h12.1a5.468,5.468,0,0,1,5.468,5.468V19.2a5.469,5.469,0,0,1-5.469,5.469H5.467A5.467,5.467,0,0,1,0,19.206V5.469A5.469,5.469,0,0,1,5.469,0Z" transform="translate(245.676 475.634)" fill="#ed4d55"/>
        <path id="Path_4514" data-name="Path 4514" d="M268.708,495.566c0,2.619-2.447,4.741-5.466,4.741h-12.1c-3.018,0-5.468-2.122-5.468-4.741V483.655c0-2.619,2.45-4.74,5.468-4.74h12.1c3.019,0,5.466,2.121,5.466,4.74Z" fill="#bc2a38"/>
      </g>
      <g id="Group_1926" data-name="Group 1926">
        <path id="Rectangle_1761" data-name="Rectangle 1761" d="M5.469,0h12.1a5.467,5.467,0,0,1,5.467,5.467V19.2a5.469,5.469,0,0,1-5.469,5.469H5.468A5.468,5.468,0,0,1,0,19.205V5.469A5.469,5.469,0,0,1,5.469,0Z" transform="translate(268.607 475.634)" fill="#ed4d55"/>
        <path id="Path_4515" data-name="Path 4515" d="M291.639,495.566c0,2.619-2.448,4.741-5.468,4.741h-12.1c-3.02,0-5.467-2.122-5.467-4.741V483.655c0-2.619,2.447-4.74,5.467-4.74h12.1c3.02,0,5.468,2.121,5.468,4.74Z" fill="#bc2a38"/>
      </g>
      <g id="Group_1927" data-name="Group 1927">
        <path id="Rectangle_1762" data-name="Rectangle 1762" d="M5.468,0h12.1a5.467,5.467,0,0,1,5.467,5.467V19.2a5.469,5.469,0,0,1-5.469,5.469H5.469A5.469,5.469,0,0,1,0,19.2V5.468A5.468,5.468,0,0,1,5.468,0Z" transform="translate(291.571 475.634)" fill="#ed4d55"/>
        <path id="Path_4516" data-name="Path 4516" d="M314.6,495.566c0,2.619-2.448,4.741-5.468,4.741h-12.1c-3.02,0-5.468-2.122-5.468-4.741V483.655c0-2.619,2.448-4.74,5.468-4.74h12.1c3.02,0,5.468,2.121,5.468,4.74Z" fill="#bc2a38"/>
      </g>
      <g id="Group_1928" data-name="Group 1928">
        <path id="Rectangle_1763" data-name="Rectangle 1763" d="M5.469,0h12.1a5.467,5.467,0,0,1,5.467,5.467V19.2a5.469,5.469,0,0,1-5.469,5.469H5.468A5.468,5.468,0,0,1,0,19.205V5.469A5.469,5.469,0,0,1,5.469,0Z" transform="translate(314.569 475.634)" fill="#ed4d55"/>
        <path id="Path_4517" data-name="Path 4517" d="M337.6,495.566c0,2.619-2.448,4.741-5.468,4.741h-12.1c-3.019,0-5.468-2.122-5.468-4.741V483.655c0-2.619,2.449-4.74,5.468-4.74h12.1c3.02,0,5.468,2.121,5.468,4.74Z" fill="#bc2a38"/>
      </g>
    </g>
    <g id="Group_1936" data-name="Group 1936">
      <g id="Group_1930" data-name="Group 1930">
        <path id="Rectangle_1764" data-name="Rectangle 1764" d="M5.469,0h12.1a5.468,5.468,0,0,1,5.468,5.468V19.205a5.467,5.467,0,0,1-5.467,5.467H5.468A5.468,5.468,0,0,1,0,19.2V5.469A5.469,5.469,0,0,1,5.469,0Z" transform="translate(222.734 487.391)" fill="#ed4d55"/>
        <path id="Path_4518" data-name="Path 4518" d="M245.768,507.322c0,2.618-2.449,4.741-5.468,4.741H228.2c-3.02,0-5.468-2.123-5.468-4.741V495.409c0-2.617,2.448-4.74,5.468-4.74h12.1c3.019,0,5.468,2.123,5.468,4.74Z" fill="#bc2a38"/>
      </g>
      <g id="Group_1931" data-name="Group 1931">
        <path id="Rectangle_1765" data-name="Rectangle 1765" d="M5.469,0h12.1a5.468,5.468,0,0,1,5.468,5.468V19.205a5.467,5.467,0,0,1-5.467,5.467H5.467A5.467,5.467,0,0,1,0,19.205V5.469A5.469,5.469,0,0,1,5.469,0Z" transform="translate(245.665 487.391)" fill="#ed4d55"/>
        <path id="Path_4519" data-name="Path 4519" d="M268.7,507.322c0,2.618-2.448,4.741-5.467,4.741h-12.1c-3.021,0-5.468-2.123-5.468-4.741V495.409c0-2.617,2.447-4.74,5.468-4.74h12.1c3.019,0,5.467,2.123,5.467,4.74Z" fill="#bc2a38"/>
      </g>
      <g id="Group_1932" data-name="Group 1932">
        <path id="Rectangle_1766" data-name="Rectangle 1766" d="M5.469,0h12.1a5.467,5.467,0,0,1,5.467,5.467V19.205a5.467,5.467,0,0,1-5.467,5.467H5.468A5.468,5.468,0,0,1,0,19.2V5.469A5.469,5.469,0,0,1,5.469,0Z" transform="translate(268.629 487.391)" fill="#ed4d55"/>
        <path id="Path_4520" data-name="Path 4520" d="M291.662,507.322c0,2.618-2.449,4.741-5.468,4.741H274.1c-3.019,0-5.468-2.123-5.468-4.741V495.409c0-2.617,2.449-4.74,5.468-4.74h12.1c3.019,0,5.468,2.123,5.468,4.74Z" fill="#bc2a38"/>
      </g>
      <g id="Group_1933" data-name="Group 1933">
        <path id="Rectangle_1767" data-name="Rectangle 1767" d="M5.469,0h12.1a5.468,5.468,0,0,1,5.468,5.468V19.205a5.467,5.467,0,0,1-5.467,5.467H5.468A5.468,5.468,0,0,1,0,19.2V5.469A5.469,5.469,0,0,1,5.469,0Z" transform="translate(291.628 487.391)" fill="#ed4d55"/>
        <path id="Path_4521" data-name="Path 4521" d="M314.66,507.322c0,2.618-2.447,4.741-5.468,4.741H297.1c-3.021,0-5.468-2.123-5.468-4.741V495.409c0-2.617,2.447-4.74,5.468-4.74h12.1c3.021,0,5.468,2.123,5.468,4.74Z" fill="#bc2a38"/>
      </g>
      <g id="Group_1934" data-name="Group 1934">
        <path id="Rectangle_1768" data-name="Rectangle 1768" d="M5.469,0h12.1a5.468,5.468,0,0,1,5.468,5.468V19.205a5.467,5.467,0,0,1-5.467,5.467H5.468A5.468,5.468,0,0,1,0,19.2V5.469A5.469,5.469,0,0,1,5.469,0Z" transform="translate(314.546 487.391)" fill="#ed4d55"/>
        <path id="Path_4522" data-name="Path 4522" d="M337.579,507.322c0,2.618-2.448,4.741-5.468,4.741h-12.1c-3.02,0-5.468-2.123-5.468-4.741V495.409c0-2.617,2.448-4.74,5.468-4.74h12.1c3.02,0,5.468,2.123,5.468,4.74Z" fill="#bc2a38"/>
      </g>
      <g id="Group_1935" data-name="Group 1935">
        <path id="Rectangle_1769" data-name="Rectangle 1769" d="M5.469,0h12.1a5.468,5.468,0,0,1,5.468,5.468V19.205a5.467,5.467,0,0,1-5.467,5.467H5.468A5.468,5.468,0,0,1,0,19.2V5.469A5.469,5.469,0,0,1,5.469,0Z" transform="translate(337.511 487.391)" fill="#ed4d55"/>
        <path id="Path_4523" data-name="Path 4523" d="M360.544,507.322c0,2.618-2.448,4.741-5.468,4.741h-12.1c-3.019,0-5.467-2.123-5.467-4.741V495.409c0-2.617,2.448-4.74,5.467-4.74h12.1c3.02,0,5.468,2.123,5.468,4.74Z" fill="#bc2a38"/>
      </g>
    </g>
    <path id="Path_4524" data-name="Path 4524" d="M359.349,407.9V397.467a8.774,8.774,0,0,0-8.749-8.747H232.68a8.774,8.774,0,0,0-8.749,8.747v10.439c3.747,5.333,8.894,8.627,14.581,8.627,6.135,0,11.63-3.853,15.428-9.946,8.129,7.606,21.448,12.571,36.514,12.571,16.031,0,30.087-5.62,38.014-14.065,3.8,6.954,9.676,11.44,16.3,11.44C350.453,416.533,355.6,413.239,359.349,407.9Z" fill="#ed4d55"/>
    <path id="Path_4525" data-name="Path 4525" d="M359.349,405.365v-7.9a8.774,8.774,0,0,0-8.749-8.747H232.68a8.774,8.774,0,0,0-8.749,8.747v7.9c3.747,4.679,8.893,7.571,14.581,7.571,6.135,0,11.63-3.38,15.428-8.724,8.129,6.672,21.448,11.025,36.514,11.025,16.031,0,30.087-4.928,38.014-12.336,3.8,6.1,9.676,10.035,16.3,10.035C350.454,412.937,355.6,410.045,359.349,405.365Z" fill="#f9b968"/>
    <path id="Path_4526" data-name="Path 4526" d="M359.349,401.592v-4.125a8.774,8.774,0,0,0-8.749-8.747H232.68a8.774,8.774,0,0,0-8.749,8.747v4.125a20.709,20.709,0,0,0,30.009-.913c8.129,5.281,21.448,8.727,36.514,8.727,16.031,0,30.087-3.9,38.014-9.764a20.714,20.714,0,0,0,30.881,1.95Z" fill="#ed4d55"/>
  </g>
</svg>