<?xml version="1.0" encoding="iso-8859-1"?>
<!-- Uploaded to: SVG Repo, www.svgrepo.com, Generator: SVG Repo Mixer Tools -->
<svg version="1.1" id="Layer_1" xmlns="http://www.w3.org/2000/svg" xmlns:xlink="http://www.w3.org/1999/xlink" 
	 viewBox="0 0 512 512" xml:space="preserve">
<path style="fill:#FF5959;" d="M236.733,269.716c7.924,0,33.749,19.075,33.749,37.857c0,18.784-25.825,14.674-33.749,14.674V269.716
	z"/>
<path style="opacity:0.2;enable-background:new    ;" d="M236.733,269.716v52.531c3.26,0,9.551,0.692,15.826,0.202v-44.39
	C246.285,272.95,239.993,269.716,236.733,269.716z"/>
<path style="fill:#00AD68;" d="M101.627,269.716c-7.924,0-33.749,19.075-33.749,37.857c0,18.784,25.825,14.674,33.749,14.674
	V269.716z"/>
<path style="opacity:0.2;enable-background:new    ;" d="M101.627,269.716v52.531c-3.26,0-9.552,0.692-15.826,0.202v-44.39
	C92.076,272.95,98.367,269.716,101.627,269.716z"/>
<path style="fill:#00AD68;" d="M482.04,41.026c0-5.822-4.763-10.585-10.585-10.585H40.185c-5.822,0-10.585,4.763-10.585,10.585
	v93.059c0,5.822,4.763,10.585,10.585,10.585h431.27c5.822,0,10.585-4.763,10.585-10.585V41.026z"/>
<path style="fill:#333E48;" d="M242.114,457.703V257.671c0-6.457-5.283-11.741-11.74-11.741H107.983
	c-6.457,0-11.738,5.284-11.738,11.741v200.033H242.114z"/>
<rect x="96.247" y="366.507" style="fill:#D1D3D3;" width="145.868" height="91.198"/>
<g>
	<rect x="124.244" y="416.362" style="fill:#A4A9AD;" width="16.936" height="41.344"/>
	<rect x="197.183" y="416.362" style="fill:#A4A9AD;" width="16.936" height="41.344"/>
</g>
<rect x="125.535" y="280.422" style="fill:#FFFFFF;" width="87.292" height="31.609"/>
<rect x="344.914" y="143.826" style="fill:#D1D3D3;" width="88.912" height="313.88"/>
<rect x="344.914" y="143.826" style="opacity:0.1;enable-background:new    ;" width="88.912" height="32.993"/>
<rect x="344.914" y="313.891" style="opacity:0.1;enable-background:new    ;" width="88.912" height="25.232"/>
<path style="fill:#A4A9AD;" d="M453.935,457.703V337.709c0-5.822-4.763-10.585-10.585-10.585H335.384
	c-5.822,0-10.585,4.763-10.585,10.585v119.994H453.935z"/>
<polygon style="fill:#FFB819;" points="180.466,30.442 123.35,30.442 59.284,144.67 116.399,144.67 "/>
<polygon style="fill:#F2D383;" points="237.58,30.442 180.466,30.442 116.399,144.67 173.515,144.67 "/>
<rect x="96.247" y="343.867" style="fill:#00AD68;" width="72.935" height="50.577"/>
<rect x="169.176" y="343.867" style="fill:#FF5959;" width="72.936" height="50.577"/>
<path style="fill:#FFB819;" d="M387.783,117.528c11.608,0,21.018-9.411,21.018-21.018s-21.018-36.697-21.018-36.697
	s-21.017,25.089-21.017,36.697S376.174,117.528,387.783,117.528z"/>
<path style="fill:#333E48;" d="M504.061,477.283c0,2.351-1.922,4.275-4.275,4.275H12.214c-2.352,0-4.275-1.924-4.275-4.275v-15.302
	c0-2.353,1.923-4.277,4.275-4.277h487.573c2.353,0,4.275,1.924,4.275,4.277V477.283z"/>
<g>
	<path style="fill:#FFFFFF;" d="M146.712,373.433h-28c-4.385,0-7.939-3.553-7.939-7.939c0-4.385,3.553-7.939,7.939-7.939h28
		c4.385,0,7.939,3.553,7.939,7.939C154.651,369.88,151.097,373.433,146.712,373.433z"/>
	<path style="fill:#FFFFFF;" d="M219.648,373.433h-28c-4.385,0-7.939-3.553-7.939-7.939c0-4.385,3.553-7.939,7.939-7.939h28
		c4.385,0,7.939,3.553,7.939,7.939C227.587,369.88,224.032,373.433,219.648,373.433z"/>
</g>
<g>
	<circle style="fill:#D1D3D3;" cx="389.37" cy="356.219" r="7.409"/>
	<circle style="fill:#D1D3D3;" cx="352.853" cy="356.219" r="7.409"/>
	<circle style="fill:#D1D3D3;" cx="425.888" cy="356.219" r="7.409"/>
</g>
<path style="fill:#1E252B;" d="M499.786,449.765h-37.911V337.709c0-10.213-8.31-18.523-18.523-18.523h-1.589V152.609h29.693
	c10.213,0,18.523-8.31,18.523-18.523V41.026c0-10.213-8.31-18.523-18.523-18.523H40.185c-10.213,0-18.523,8.31-18.523,18.523v93.059
	c0,10.213,8.31,18.523,18.523,18.523h296.789v166.577h-1.589c-10.213,0-18.523,8.31-18.523,18.523v112.055h-66.808v-56.706
	c5.952-2.519,10.964-6.85,14.706-12.774c4.886-7.732,7.715-18.387,8.181-30.813c0.308-8.222-0.424-16.95-2.053-25.147
	c0.427-0.344,0.843-0.706,1.244-1.088c4.116-3.922,6.292-9.337,6.292-15.662c0-11.265-6.64-21.124-12.211-27.411
	c-4.677-5.28-10.557-10.192-16.158-13.601v-8.891c0-10.851-8.828-19.679-19.678-19.679H107.983
	c-10.849,0-19.677,8.828-19.677,19.679v8.891c-5.6,3.41-11.479,8.322-16.157,13.601c-5.571,6.287-12.211,16.146-12.211,27.411
	c0,6.325,2.176,11.741,6.292,15.662c0.401,0.382,0.816,0.744,1.244,1.088c-1.629,8.197-2.361,16.925-2.053,25.147
	c0.466,12.426,3.294,23.082,8.181,30.813c3.742,5.923,8.754,10.254,14.705,12.773v56.707H12.214C5.48,449.765,0,455.246,0,461.981
	v15.302c0,6.734,5.48,12.214,12.214,12.214h487.573c6.734,0,12.214-5.48,12.214-12.214v-15.302
	C512,455.246,506.52,449.765,499.786,449.765z M250.053,286.394c6.671,6.13,12.491,14.265,12.491,21.18
	c0,2.538-0.73,3.561-1.366,4.166c-2.147,2.047-6.838,2.718-11.125,2.889V286.394z M250.053,330.546
	c1.841-0.056,3.782-0.188,5.76-0.449c2.433,14.615,1.728,31.887-4.476,41.706c-0.408,0.645-0.839,1.235-1.285,1.799v-43.057H250.053
	z M40.185,136.732c-1.434,0-2.646-1.212-2.646-2.646V41.026c0-1.434,1.212-2.646,2.646-2.646h431.27
	c1.434,0,2.646,1.212,2.646,2.646v93.059c0,1.435-1.212,2.646-2.646,2.646H40.185z M425.885,152.609v166.577H352.85V152.609H425.885
	z M332.738,337.709c0-1.434,1.212-2.646,2.646-2.646H443.35c1.434,0,2.646,1.212,2.646,2.646v112.055H332.738V337.709z
	 M104.184,257.671c0-2.061,1.74-3.802,3.8-3.802h122.392c2.06,0,3.801,1.741,3.801,3.802v78.259H104.184V257.671z M234.176,351.806
	v34.7h-57.058v-34.7H234.176z M104.184,351.806h57.057v34.7h-57.057V351.806z M104.184,402.383h129.993v47.382H104.184V402.383z
	 M77.183,311.74c-0.636-0.605-1.366-1.628-1.366-4.166c0-6.915,5.819-15.049,12.49-21.18v28.236
	C84.021,314.458,79.329,313.786,77.183,311.74z M87.022,371.804c-6.204-9.819-6.909-27.092-4.476-41.706
	c1.977,0.26,3.918,0.393,5.759,0.449v43.057C87.862,373.038,87.43,372.448,87.022,371.804z M496.123,473.62H15.877v-7.978h480.246
	V473.62z M387.783,51.874c-2.349,0-4.577,1.039-6.085,2.841c-5.365,6.405-22.87,28.346-22.87,41.795
	c0,15.967,12.99,28.957,28.956,28.957s28.957-12.99,28.957-28.957c0-13.449-17.505-35.39-22.87-41.795
	C392.361,52.913,390.132,51.874,387.783,51.874z M387.783,109.589c-7.211,0-13.078-5.868-13.078-13.08
	c0-3.404,5.058-13.049,13.078-23.876c8.02,10.827,13.08,20.472,13.08,23.876C400.862,103.721,394.995,109.589,387.783,109.589z"/>
</svg>