<svg xmlns="http://www.w3.org/2000/svg" viewBox="0 0 256 256"><defs><style>.cls-1{fill:#52e355;}.cls-2{fill:#90fc95;}.cls-3{fill:#2fb1ea;}.cls-4{fill:#ffe76e;}.cls-5{fill:#ffc444;}.cls-6{fill:#fff;}.cls-7{fill:#cbecf9;}.cls-8{fill:#6dd0fc;}.cls-9{fill:#a4ecff;}.cls-10{fill:#d4ffd4;}.cls-11{fill:#ffbdbd;}.cls-12{fill:#bbf1ff;}.cls-13{fill:#fff4c5;}</style></defs><title>business economic finance interprise company credit card</title><g id="Layer_2" data-name="Layer 2"><rect class="cls-1" x="44" y="127.02" width="168" height="93.19"/><rect class="cls-2" x="44" y="127.02" width="158.76" height="85.03"/><rect class="cls-1" x="44" y="127.02" width="158.76" height="71.76"/><rect class="cls-1" x="60.35" y="127.02" width="142.41" height="31.8"/><path class="cls-3" d="M212,222.21H44a2,2,0,0,1-2-2V127a2,2,0,0,1,2-2H212a2,2,0,0,1,2,2v93.19A2,2,0,0,1,212,222.21Zm-166-4H210V129H46Z"/><path class="cls-4" d="M194.94,161.14v24.94a17.06,17.06,0,0,0-17.06,17.06H78.13a17.06,17.06,0,0,0-17.06-17.06V161.14a17.06,17.06,0,0,0,17.06-17.06h99.75A17.06,17.06,0,0,0,194.94,161.14Z"/><path class="cls-5" d="M194.94,186.08V161.14a17.06,17.06,0,0,1-17.06-17.06H78.13a17.06,17.06,0,0,1-17.06,17.06v24.94a17.05,17.05,0,0,1,16.48,12.7H178.46A17.05,17.05,0,0,1,194.94,186.08Z"/><path class="cls-5" d="M177.88,144.08H78.13a17,17,0,0,1-8.49,14.74H186.36A17,17,0,0,1,177.88,144.08Z"/><path class="cls-3" d="M177.88,205.14H78.13a2,2,0,0,1-2-2,15.08,15.08,0,0,0-15.06-15.06,2,2,0,0,1-2-2V161.14a2,2,0,0,1,2-2,15.08,15.08,0,0,0,15.06-15.06,2,2,0,0,1,2-2h99.75a2,2,0,0,1,2,2,15.08,15.08,0,0,0,15.06,15.06,2,2,0,0,1,2,2v24.94a2,2,0,0,1-2,2,15.08,15.08,0,0,0-15.06,15.06A2,2,0,0,1,177.88,205.14Zm-97.85-4h96a19.1,19.1,0,0,1,17-17V163a19.1,19.1,0,0,1-17-17H80a19.1,19.1,0,0,1-17,17v21.15A19.1,19.1,0,0,1,80,201.14Z"/><circle class="cls-6" cx="128" cy="173.61" r="17.33"/><path class="cls-3" d="M128,192.95a19.33,19.33,0,1,1,19.33-19.33A19.35,19.35,0,0,1,128,192.95Zm0-34.67a15.33,15.33,0,1,0,15.33,15.33A15.35,15.35,0,0,0,128,158.28Z"/><rect class="cls-1" x="44" y="97.59" width="168" height="93.19"/><rect class="cls-2" x="44" y="97.59" width="158.76" height="85.03"/><rect class="cls-1" x="60.35" y="97.59" width="142.41" height="31.8"/><path class="cls-3" d="M212,192.78H44a2,2,0,0,1-2-2V97.59a2,2,0,0,1,2-2H212a2,2,0,0,1,2,2v93.19A2,2,0,0,1,212,192.78Zm-166-4H210V99.59H46Z"/><path class="cls-4" d="M194.94,131.72v24.94a17.06,17.06,0,0,0-17.06,17.06H78.13a17.06,17.06,0,0,0-17.06-17.06V131.72a17.06,17.06,0,0,0,17.06-17.06h99.75A17.06,17.06,0,0,0,194.94,131.72Z"/><path class="cls-5" d="M177.88,114.65H78.13a17,17,0,0,1-8.49,14.74H186.36A17,17,0,0,1,177.88,114.65Z"/><path class="cls-3" d="M177.88,175.72H78.13a2,2,0,0,1-2-2,15.08,15.08,0,0,0-15.06-15.06,2,2,0,0,1-2-2V131.72a2,2,0,0,1,2-2,15.08,15.08,0,0,0,15.06-15.06,2,2,0,0,1,2-2h99.75a2,2,0,0,1,2,2,15.08,15.08,0,0,0,15.06,15.06,2,2,0,0,1,2,2v24.94a2,2,0,0,1-2,2,15.08,15.08,0,0,0-15.06,15.06A2,2,0,0,1,177.88,175.72Zm-97.85-4h96a19.1,19.1,0,0,1,17-17V133.61a19.1,19.1,0,0,1-17-17H80a19.1,19.1,0,0,1-17,17v21.15A19.1,19.1,0,0,1,80,171.72Z"/><circle class="cls-6" cx="128" cy="144.19" r="17.33"/><path class="cls-3" d="M128,163.52a19.33,19.33,0,1,1,19.33-19.33A19.35,19.35,0,0,1,128,163.52Zm0-34.67a15.33,15.33,0,1,0,15.33,15.33A15.35,15.35,0,0,0,128,128.85Z"/><rect class="cls-7" x="60.35" y="35.79" width="139.31" height="85.6"/><rect class="cls-6" x="60.35" y="35.79" width="128.17" height="76.86"/><path class="cls-3" d="M199.67,123.39H60.35a2,2,0,0,1-2-2V35.79a2,2,0,0,1,2-2H199.67a2,2,0,0,1,2,2v85.6A2,2,0,0,1,199.67,123.39Zm-137.31-4H197.67V37.79H62.35Z"/><circle class="cls-4" cx="152.23" cy="91.3" r="10.37"/><path class="cls-3" d="M152.23,103.68A12.37,12.37,0,1,1,164.6,91.3,12.39,12.39,0,0,1,152.23,103.68Zm0-20.75a8.37,8.37,0,1,0,8.37,8.37A8.38,8.38,0,0,0,152.23,82.93Z"/><circle class="cls-4" cx="161.53" cy="91.3" r="10.37"/><path class="cls-3" d="M161.53,103.68A12.37,12.37,0,1,1,173.9,91.3,12.39,12.39,0,0,1,161.53,103.68Zm0-20.75a8.37,8.37,0,1,0,8.37,8.37A8.38,8.38,0,0,0,161.53,82.93Z"/><rect class="cls-8" x="60.35" y="48.24" width="139.31" height="16.52"/><rect class="cls-9" x="60.35" y="48.24" width="128.17" height="16.52"/><path class="cls-3" d="M199.67,66.76H60.35a2,2,0,0,1-2-2V48.24a2,2,0,0,1,2-2H199.67a2,2,0,0,1,2,2V64.76A2,2,0,0,1,199.67,66.76Zm-137.31-4H197.67V50.24H62.35Z"/><circle class="cls-10" cx="134.5" cy="249" r="5"/><circle class="cls-10" cx="9.5" cy="128" r="4"/><circle class="cls-10" cx="125.5" cy="22" r="3"/><circle class="cls-10" cx="224.5" cy="67" r="2"/><circle class="cls-10" cx="207.5" cy="16" r="1"/><circle class="cls-11" cx="170.5" cy="22" r="5"/><circle class="cls-11" cx="246.5" cy="37" r="4"/><circle class="cls-11" cx="108.5" cy="240" r="3"/><circle class="cls-11" cx="193.5" cy="240" r="2"/><circle class="cls-11" cx="241.5" cy="171" r="1"/><circle class="cls-12" cx="23.5" cy="211" r="5"/><circle class="cls-12" cx="238.5" cy="154" r="4"/><circle class="cls-12" cx="245.5" cy="212" r="3"/><circle class="cls-12" cx="19.5" cy="31" r="2"/><circle class="cls-12" cx="27.5" cy="47" r="1"/><circle class="cls-13" cx="66.5" cy="242" r="5"/><circle class="cls-13" cx="61.5" cy="6" r="4"/><circle class="cls-13" cx="14.5" cy="81" r="3"/><circle class="cls-13" cx="32.5" cy="196" r="2"/><circle class="cls-13" cx="242.5" cy="99" r="1"/></g></svg>