<?xml version="1.0" encoding="utf-8"?><!-- Uploaded to: SVG Repo, www.svgrepo.com, Generator: SVG Repo Mixer Tools -->
<svg fill="#000000" width="800px" height="800px" viewBox="0 0 24 24" id="bill-euro-left" data-name="Flat Line" xmlns="http://www.w3.org/2000/svg" class="icon flat-line"><path id="secondary" d="M18,3H10A8.48,8.48,0,0,1,5,18v3l2.33-1,2.33,1L12,20l2.34,1,2.33-1L19,21V4A1,1,0,0,0,18,3Z" style="fill: rgb(44, 169, 188); stroke-width: 2;"></path><path id="primary" d="M10,7.77A3,3,0,0,0,8,7H8a3,3,0,0,0-3,3H5a3,3,0,0,0,3,3H8a3,3,0,0,0,2-.77" style="fill: none; stroke: rgb(0, 0, 0); stroke-linecap: round; stroke-linejoin: round; stroke-width: 2;"></path><path id="primary-2" data-name="primary" d="M4,10H7m6,5h3m-2-4h2" style="fill: none; stroke: rgb(0, 0, 0); stroke-linecap: round; stroke-linejoin: round; stroke-width: 2;"></path><path id="primary-3" data-name="primary" d="M10,3h9a1,1,0,0,1,1,1V21l-2.34-1-2.33,1L13,20l-2.33,1L8.33,20,6,21V18" style="fill: none; stroke: rgb(0, 0, 0); stroke-linecap: round; stroke-linejoin: round; stroke-width: 2;"></path></svg>