<?xml version="1.0" encoding="iso-8859-1"?>
<!-- Uploaded to: SVG Repo, www.svgrepo.com, Generator: SVG Repo Mixer Tools -->
<svg version="1.1" id="Layer_1" xmlns="http://www.w3.org/2000/svg" xmlns:xlink="http://www.w3.org/1999/xlink" 
	 viewBox="0 0 512 512" xml:space="preserve">
<path style="fill:#547475;" d="M156.563,503.916h-34.716c-13.147,0-23.809-10.66-23.809-23.807V31.892
	c0-13.148,10.661-23.807,23.809-23.807h268.307c13.147,0,23.806,10.659,23.806,23.807v448.217c0,13.147-10.659,23.807-23.806,23.807
	H180.272"/>
<polyline style="fill:#53CAF9;" points="377.355,105.095 377.355,287.355 134.645,287.355 134.645,44.84 377.355,44.84 
	377.355,81.381 "/>
<g style="opacity:0.2;">
	<rect x="134.651" y="44.84" style="fill:#231F20;" width="25.26" height="242.516"/>
</g>
<g>
	<rect x="230.184" y="103.801" style="fill:#EBF25F;" width="29.775" height="29.775"/>
	<rect x="259.967" y="133.573" style="fill:#EBF25F;" width="29.777" height="29.775"/>
	<rect x="259.967" y="163.344" style="fill:#EBF25F;" width="29.777" height="29.775"/>
	<rect x="259.967" y="193.126" style="fill:#EBF25F;" width="29.777" height="29.775"/>
	<rect x="134.651" y="257.585" style="fill:#EBF25F;" width="29.775" height="29.776"/>
	<rect x="164.422" y="257.585" style="fill:#EBF25F;" width="29.775" height="29.776"/>
	<rect x="164.422" y="227.802" style="fill:#EBF25F;" width="29.775" height="29.776"/>
	<rect x="164.422" y="198.031" style="fill:#EBF25F;" width="29.775" height="29.776"/>
	<rect x="194.194" y="257.585" style="fill:#EBF25F;" width="29.775" height="29.776"/>
	<rect x="347.578" y="227.802" style="fill:#EBF25F;" width="29.775" height="29.776"/>
	<rect x="317.806" y="257.585" style="fill:#EBF25F;" width="29.775" height="29.776"/>
	<rect x="347.578" y="257.585" style="fill:#EBF25F;" width="29.775" height="29.776"/>
</g>
<g style="opacity:0.2;">
	<path style="fill:#231F20;" d="M123.908,480.108V31.892c0-13.148,10.661-23.807,23.809-23.807h-25.869
		c-13.147,0-23.809,10.659-23.809,23.807v448.217c0,13.147,10.661,23.807,23.809,23.807h25.869
		C134.57,503.916,123.908,493.255,123.908,480.108z"/>
</g>
<g>
	<circle style="fill:#EFBA00;" cx="357.182" cy="358.228" r="20.164"/>
	<circle style="fill:#EFBA00;" cx="318.906" cy="416.994" r="20.164"/>
</g>
<polygon style="fill:#F74848;" points="215.302,374.877 189.435,374.877 189.435,349.009 160.513,349.009 160.513,374.877 
	134.645,374.877 134.645,403.798 160.513,403.798 160.513,429.665 189.435,429.665 189.435,403.798 215.302,403.798 "/>
<g>
	<path style="fill:#231F20;" d="M203.818,473.458v0.023c0,4.466,3.618,8.072,8.084,8.072c4.466,0,8.084-3.63,8.084-8.096
		c0-4.466-3.618-8.084-8.084-8.084C207.437,465.372,203.818,468.993,203.818,473.458z"/>
	<path style="fill:#231F20;" d="M292.016,473.458v0.023c0,4.466,3.618,8.072,8.084,8.072s8.084-3.63,8.084-8.096
		c0-4.466-3.618-8.084-8.084-8.084S292.016,468.993,292.016,473.458z"/>
	<path style="fill:#231F20;" d="M262.616,473.458v0.023c0,4.466,3.618,8.072,8.084,8.072s8.084-3.63,8.084-8.096
		c0-4.466-3.618-8.084-8.084-8.084S262.616,468.993,262.616,473.458z"/>
	<path style="fill:#231F20;" d="M233.215,473.458v0.023c0,4.466,3.618,8.072,8.084,8.072c4.466,0,8.084-3.63,8.084-8.096
		c0-4.466-3.618-8.084-8.084-8.084C236.834,465.372,233.215,468.993,233.215,473.458z"/>
	<path style="fill:#231F20;" d="M390.155,0H121.847c-17.585,0-31.893,14.307-31.893,31.892v448.217
		c0,17.585,14.307,31.892,31.893,31.892h34.716c4.466,0,8.084-3.618,8.084-8.084s-3.618-8.084-8.084-8.084h-34.716
		c-8.671,0-15.724-7.054-15.724-15.723V31.892c0-8.67,7.054-15.723,15.724-15.723h268.307c8.669,0,15.722,7.054,15.722,15.723
		v448.217c0,8.669-7.053,15.723-15.722,15.723H180.272c-4.466,0-8.084,3.618-8.084,8.084s3.618,8.084,8.084,8.084h209.882
		c17.584,0,31.891-14.307,31.891-31.892V31.892C422.045,14.307,407.738,0,390.155,0z"/>
	<path style="fill:#231F20;" d="M377.355,89.465c4.466,0,8.084-3.62,8.084-8.084V44.84c0-4.465-3.618-8.084-8.084-8.084h-242.71
		c-4.466,0-8.084,3.62-8.084,8.084v212.739v29.776c0,4.465,3.618,8.084,8.084,8.084h29.775h29.775h29.775h93.836h29.775h29.775
		c4.466,0,8.084-3.62,8.084-8.084v-29.776v-29.776V105.095c0-4.465-3.618-8.084-8.084-8.084c-4.466,0-8.084,3.62-8.084,8.084
		v114.624h-21.69c-4.466,0-8.084,3.62-8.084,8.084v21.692h-21.69c-4.466,0-8.084,3.62-8.084,8.084v21.692h-77.668v-21.692
		c0-4.465-3.618-8.084-8.084-8.084h-21.69v-21.692v-29.776c0-4.465-3.618-8.084-8.084-8.084H164.42c-4.466,0-8.084,3.62-8.084,8.084
		v29.776v21.692h-13.606V52.925h226.541v28.456C369.271,85.846,372.889,89.465,377.355,89.465z M172.504,235.888h13.606v13.607
		h-13.606V235.888z M172.504,265.663h13.606v13.607h-13.606V265.663z M369.271,279.271h-13.606v-13.607h13.606V279.271z
		 M355.664,235.888h13.606v13.607h-13.606V235.888z M325.89,265.663h13.606v13.607H325.89V265.663z M215.885,279.271h-13.606
		v-13.607h13.606V279.271z M172.504,206.112h13.606v13.607h-13.606V206.112z M156.336,265.663v13.607h-13.606v-13.607H156.336z"/>
	<path style="fill:#231F20;" d="M160.513,437.749h28.922c4.466,0,8.084-3.618,8.084-8.084v-17.783h17.783
		c4.466,0,8.084-3.618,8.084-8.084v-28.921c0-4.466-3.618-8.084-8.084-8.084h-17.783v-17.783c0-4.466-3.618-8.084-8.084-8.084
		h-28.922c-4.466,0-8.084,3.618-8.084,8.084v17.783h-17.783c-4.466,0-8.084,3.618-8.084,8.084v28.921
		c0,4.466,3.618,8.084,8.084,8.084h17.783v17.783C152.428,434.131,156.048,437.749,160.513,437.749z M142.729,395.713v-12.753
		h17.783c4.466,0,8.084-3.618,8.084-8.084v-17.783h12.754v17.783c0,4.466,3.618,8.084,8.084,8.084h17.783v12.753h-17.783
		c-4.466,0-8.084,3.618-8.084,8.084v17.783h-12.754v-17.783c0-4.466-3.618-8.084-8.084-8.084H142.729z"/>
	<path style="fill:#231F20;" d="M357.17,386.478c10.07,0,19.451-5.413,24.48-14.127c7.789-13.49,3.151-30.8-10.338-38.589
		c-4.292-2.478-9.17-3.788-14.105-3.788c-10.071,0-19.452,5.412-24.483,14.128c-3.773,6.535-4.775,14.147-2.822,21.436
		c1.954,7.288,6.627,13.379,13.162,17.151c4.291,2.478,9.169,3.788,14.104,3.789h0.002V386.478z M345.52,361.352
		c-0.835-3.117-0.407-6.371,1.206-9.166c2.153-3.727,6.169-6.044,10.481-6.044c2.102,0,4.184,0.562,6.021,1.621
		c5.768,3.331,7.75,10.733,4.42,16.504c-2.151,3.726-6.168,6.042-10.479,6.042c-2.102,0-4.183-0.562-6.021-1.622
		C348.354,367.074,346.355,364.469,345.52,361.352z"/>
	<path style="fill:#231F20;" d="M318.888,445.241c10.069,0,19.45-5.413,24.481-14.126c7.788-13.49,3.15-30.8-10.34-38.589
		c-4.292-2.478-9.17-3.788-14.105-3.788c-10.071,0-19.452,5.413-24.484,14.128c-7.786,13.49-3.146,30.799,10.341,38.585
		C309.071,443.931,313.95,445.241,318.888,445.241C318.887,445.241,318.887,445.241,318.888,445.241z M308.442,410.951
		c2.153-3.727,6.169-6.043,10.481-6.043c2.102,0,4.184,0.562,6.021,1.621c5.769,3.331,7.752,10.734,4.423,16.503
		c-2.151,3.726-6.168,6.042-10.479,6.042c0,0,0,0-0.001,0c-2.102,0-4.184-0.562-6.022-1.622
		C307.095,424.121,305.112,416.718,308.442,410.951z"/>
	<path style="fill:#231F20;" d="M308.997,314.925c0-4.466-3.618-8.084-8.084-8.084H211.09c-4.466,0-8.084,3.618-8.084,8.084
		c0,4.466,3.618,8.084,8.084,8.084h89.823C305.378,323.009,308.997,319.391,308.997,314.925z"/>
	<path style="fill:#231F20;" d="M251.879,193.123v29.775c0,4.465,3.618,8.084,8.084,8.084h29.777c4.466,0,8.084-3.62,8.084-8.084
		v-29.775v-29.775v-29.775c0-4.465-3.618-8.084-8.084-8.084h-21.693v-21.69c0-4.465-3.618-8.084-8.084-8.084h-29.775
		c-4.466,0-8.084,3.62-8.084,8.084v29.775c0,4.465,3.618,8.084,8.084,8.084h21.69v21.69V193.123z M281.656,185.039h-13.608v-13.606
		h13.608V185.039z M281.656,214.815h-13.608v-13.606h13.608V214.815z M281.656,155.264h-13.608v-13.606h13.608V155.264z
		 M238.273,111.883h13.606v13.606h-13.606V111.883z"/>
</g>
</svg>