<?xml version="1.0" encoding="utf-8"?>
<!-- Uploaded to: SVG Repo, www.svgrepo.com, Generator: SVG Repo Mixer Tools -->
<svg width="800px" height="800px" viewBox="0 0 1024 1024" class="icon"  version="1.1" xmlns="http://www.w3.org/2000/svg"><path d="M890.88 424.96H189.44c-17.92 0-32 14.08-32 32v318.72c0 17.92 14.08 32 32 32h227.84l11.52-47.36c0-17.92 14.08-32 32-32h175.36c17.92 0 32 14.08 32 32l11.52 47.36h211.2c17.92 0 32-14.08 32-32V456.96c0-16.64-14.08-32-32-32z" fill="#00B2AE" /><path d="M890.88 821.76H679.68c-6.4 0-11.52-3.84-12.8-10.24l-11.52-47.36v-2.56c0-10.24-8.96-19.2-19.2-19.2H460.8c-10.24 0-19.2 8.96-19.2 19.2v2.56l-11.52 47.36c-1.28 5.12-6.4 10.24-12.8 10.24H189.44c-24.32 0-44.8-20.48-44.8-44.8v-320c0-24.32 20.48-44.8 44.8-44.8h702.72c24.32 0 44.8 20.48 44.8 44.8v318.72c-1.28 25.6-20.48 46.08-46.08 46.08z m-200.96-25.6h200.96c10.24 0 19.2-8.96 19.2-19.2v-320c0-10.24-8.96-19.2-19.2-19.2H189.44c-10.24 0-19.2 8.96-19.2 19.2v318.72c0 10.24 8.96 19.2 19.2 19.2h217.6l8.96-37.12c1.28-24.32 20.48-43.52 44.8-43.52h175.36c24.32 0 43.52 19.2 44.8 43.52l8.96 38.4z" fill="#231C1C" /><path d="M537.6 422.4h-25.6v-111.36c0-7.68 5.12-12.8 12.8-12.8h83.2v-115.2h25.6v128c0 7.68-5.12 12.8-12.8 12.8H537.6V422.4z" fill="#231C1C" /><path d="M700.16 552.96m-47.36 0a47.36 47.36 0 1 0 94.72 0 47.36 47.36 0 1 0-94.72 0Z" fill="#D4594C" /><path d="M700.16 614.4c-33.28 0-60.16-26.88-60.16-60.16s26.88-60.16 60.16-60.16 60.16 26.88 60.16 60.16c0 32-26.88 60.16-60.16 60.16z m0-96c-19.2 0-34.56 15.36-34.56 34.56s15.36 34.56 34.56 34.56 34.56-15.36 34.56-34.56-15.36-34.56-34.56-34.56z" fill="#231C1C" /><path d="M811.52 648.96m-47.36 0a47.36 47.36 0 1 0 94.72 0 47.36 47.36 0 1 0-94.72 0Z" fill="#B8CA43" /><path d="M811.52 709.12c-33.28 0-60.16-26.88-60.16-60.16s26.88-60.16 60.16-60.16 60.16 26.88 60.16 60.16-26.88 60.16-60.16 60.16z m0-94.72c-19.2 0-34.56 15.36-34.56 34.56s15.36 34.56 34.56 34.56 34.56-15.36 34.56-34.56-15.36-34.56-34.56-34.56z" fill="#231C1C" /><path d="M380.16 569.6H332.8v-48.64h-64v48.64h-47.36v64H268.8v47.36h64v-47.36h47.36z" fill="#FAC546" /><path d="M332.8 693.76h-64c-7.68 0-12.8-5.12-12.8-12.8v-34.56h-34.56c-7.68 0-12.8-5.12-12.8-12.8v-64c0-7.68 5.12-12.8 12.8-12.8H256v-34.56c0-7.68 5.12-12.8 12.8-12.8h64c7.68 0 12.8 5.12 12.8 12.8v34.56h34.56c7.68 0 12.8 5.12 12.8 12.8v64c0 7.68-5.12 12.8-12.8 12.8H345.6v34.56c0 6.4-6.4 12.8-12.8 12.8z m-51.2-25.6h38.4v-34.56c0-7.68 5.12-12.8 12.8-12.8h34.56v-38.4H332.8c-7.68 0-12.8-5.12-12.8-12.8v-34.56h-38.4v34.56c0 7.68-5.12 12.8-12.8 12.8h-34.56v38.4H268.8c7.68 0 12.8 5.12 12.8 12.8v34.56z" fill="#231C1C" /></svg>