<?xml version="1.0" ?><svg id="fill" viewBox="0 0 64 64" xmlns="http://www.w3.org/2000/svg"><rect height="8" style="fill:#85b4e0" width="5" x="49" y="53"/><rect height="8" style="fill:#0468ad" width="5" x="49" y="45"/><rect height="8" style="fill:#85b4e0" width="5" x="49" y="37"/><rect height="8" style="fill:#0468ad" width="5" x="49" y="29"/><rect height="8" style="fill:#85b4e0" width="5" x="49" y="21"/><rect height="8" style="fill:#0468ad" width="5" x="49" y="13"/><rect height="58" style="fill:#d9dae2" width="40" x="10" y="3"/><path d="M47,18V3h3V61H10V57.876A39.993,39.993,0,0,0,47,18Z" style="fill:#cfcfd9"/><circle cx="32" cy="22" r="11" style="fill:#fff"/><rect height="6" rx="3" ry="3" style="fill:#027de5" width="6" x="29" y="17"/><path d="M33.935,23h-3.87A3.065,3.065,0,0,0,27,26.065V31.79a10.936,10.936,0,0,0,10,0V26.065A3.065,3.065,0,0,0,33.935,23Z" style="fill:#027de5"/><rect height="4" style="fill:#cceaff" width="10" x="6" y="12"/><rect height="4" style="fill:#cceaff" width="10" x="6" y="21"/><rect height="4" style="fill:#cceaff" width="10" x="6" y="30"/><rect height="4" style="fill:#cceaff" width="10" x="6" y="39"/><rect height="4" style="fill:#cceaff" width="10" x="6" y="48"/><rect height="2" style="fill:#444" width="18" x="23" y="37"/><rect height="2" style="fill:#444" width="18" x="23" y="41"/><rect height="2" style="fill:#444" width="18" x="23" y="45"/><path d="M22,56a1,1,0,0,1-.707-.293l-2-2,1.414-1.414L22,53.586l3.293-3.293,1.414,1.414-4,4A1,1,0,0,1,22,56Z" style="fill:#444"/><path d="M31,56a1,1,0,0,1-.707-.293l-2-2,1.414-1.414L31,53.586l3.293-3.293,1.414,1.414-4,4A1,1,0,0,1,31,56Z" style="fill:#444"/><path d="M40,56a1,1,0,0,1-.707-.293l-2-2,1.414-1.414L40,53.586l3.293-3.293,1.414,1.414-4,4A1,1,0,0,1,40,56Z" style="fill:#444"/><path d="M54,12H51V3a1,1,0,0,0-1-1H10A1,1,0,0,0,9,3v8H6a1,1,0,0,0-1,1v4a1,1,0,0,0,1,1H9v3H6a1,1,0,0,0-1,1v4a1,1,0,0,0,1,1H9v3H6a1,1,0,0,0-1,1v4a1,1,0,0,0,1,1H9v3H6a1,1,0,0,0-1,1v4a1,1,0,0,0,1,1H9v3H6a1,1,0,0,0-1,1v4a1,1,0,0,0,1,1H9v8a1,1,0,0,0,1,1H54a1,1,0,0,0,1-1V13A1,1,0,0,0,54,12ZM7,15V13h8v2Zm0,9V22h8v2Zm0,9V31h8v2Zm0,9V40h8v2Zm0,7h8v2H7ZM49,60H11V53h5a1,1,0,0,0,1-1V48a1,1,0,0,0-1-1H11V44h5a1,1,0,0,0,1-1V39a1,1,0,0,0-1-1H11V35h5a1,1,0,0,0,1-1V30a1,1,0,0,0-1-1H11V26h5a1,1,0,0,0,1-1V21a1,1,0,0,0-1-1H11V17h5a1,1,0,0,0,1-1V12a1,1,0,0,0-1-1H11V4H49Zm4,0H51V54h2Zm0-8H51V46h2Zm0-8H51V38h2Zm0-8H51V30h2Zm0-8H51V22h2Zm0-8H51V14h2Z"/></svg>