<?xml version="1.0" encoding="iso-8859-1"?>
<!-- Uploaded to: SVG Repo, www.svgrepo.com, Generator: SVG Repo Mixer Tools -->
<svg height="800px" width="800px" version="1.1" id="Layer_1" xmlns="http://www.w3.org/2000/svg" xmlns:xlink="http://www.w3.org/1999/xlink" 
	 viewBox="0 0 512 512" xml:space="preserve">
<circle style="fill:#FFDC64;" cx="256" cy="256" r="247.409"/>
<circle style="fill:#FFF082;" cx="256" cy="256" r="201.593"/>
<g>
	<path style="fill:#C7CFE2;" d="M219.347,201.02v22.908c0,8.652,4.074,16.8,10.996,21.992l16.494,12.37v36.905
		c-5.454,3.174-9.163,9.018-9.163,15.785v191.682c6.058,0.444,12.154,0.748,18.327,0.748c12.456,0,24.692-0.944,36.653-2.72V310.98
		c0-6.767-3.709-12.61-9.163-15.785v-36.904l16.494-12.372c6.922-5.192,10.996-13.339,10.996-21.992v-22.908h-91.633V201.02z"/>
	<path style="fill:#C7CFE2;" d="M347.633,274.327v100.796c0,10.121,8.206,18.327,18.327,18.327h9.163v44.671
		c-10.121,0-18.327,8.205-18.327,18.327v25.488c19.843-8.867,38.313-20.238,54.98-33.766V146.04
		C411.776,146.04,347.633,164.367,347.633,274.327z"/>
</g>
<g>
	<path style="fill:#AFB9D2;" d="M365.96,393.45h9.163V208.968c0-9.762-13.482-11.999-16.83-2.828
		c-6.366,17.439-10.66,39.739-10.66,68.186v100.796C347.633,385.245,355.838,393.45,365.96,393.45z"/>
	<path style="fill:#AFB9D2;" d="M375.123,438.121c-10.121,0-18.327,8.205-18.327,18.327v25.488
		c6.269-2.801,12.345-5.939,18.327-9.23V438.121z"/>
	<path style="fill:#AFB9D2;" d="M251.418,292.653c-7.591,0-13.745,6.154-13.745,13.745v196.263
		c6.058,0.444,12.155,0.748,18.327,0.748c3.073,0,6.118-0.12,9.163-0.233V306.398C265.163,298.808,259.009,292.653,251.418,292.653z
		"/>
</g>
<path style="fill:#C7CFE2;" d="M127.714,146.04c-32.895,0-59.562,34.871-59.562,77.888c0,30.34,13.275,56.603,32.637,69.454
	c5.251,3.485,8.597,9.162,8.597,15.464v32.164c-5.454,3.174-9.163,9.018-9.163,15.785v91.373
	c16.667,13.527,35.137,24.899,54.98,33.766V356.796c0-6.767-3.709-12.61-9.163-15.785v-32.164c0-6.302,3.346-11.979,8.597-15.464
	c19.362-12.852,32.637-39.115,32.637-69.454C187.275,180.911,160.609,146.04,127.714,146.04z"/>
<g>
	<path style="fill:#AFB9D2;" d="M113.969,338.47c-7.591,0-13.745,6.154-13.745,13.745v95.955
		c8.703,7.064,17.868,13.578,27.49,19.424V352.215C127.714,344.624,121.559,338.47,113.969,338.47z"/>
	<path style="fill:#AFB9D2;" d="M91.06,205.602c0-3.959,0.227-7.848,0.663-11.647c1.199-10.437-13.721-14.283-17.439-4.458
		c-3.926,10.376-6.133,22.064-6.133,34.431c0,40.939,24.154,74.502,54.844,77.648c3.022,0.309,6.031-0.81,8.403-2.707l0,0
		c6.83-5.465,6.117-16.478-1.733-20.337C107.11,267.443,91.06,238.973,91.06,205.602z"/>
</g>
<path d="M437.02,74.98C388.668,26.629,324.38,0,256,0S123.332,26.629,74.98,74.98C26.629,123.332,0,187.62,0,256
	s26.629,132.668,74.98,181.02C123.332,485.371,187.62,512,256,512s132.668-26.629,181.02-74.98C485.371,388.668,512,324.38,512,256
	S485.371,123.332,437.02,74.98z M256,494.819C124.315,494.819,17.181,387.685,17.181,256S124.315,17.181,256,17.181
	S494.819,124.315,494.819,256S387.685,494.819,256,494.819z"/>
<path d="M310.98,91.633c-4.744,0-8.591,3.846-8.591,8.591v123.705c0,5.917-2.826,11.57-7.56,15.119l-16.494,12.37
	c-2.164,1.623-3.436,4.168-3.436,6.872v36.904c0,3.058,1.626,5.886,4.27,7.425c3.064,1.783,4.893,4.909,4.893,8.36v100.795
	c0,4.744,3.846,8.591,8.591,8.591c4.744,0,8.591-3.846,8.591-8.591V310.98c0-7.735-3.417-15.071-9.163-20.132v-28.262l13.059-9.793
	c9.036-6.779,14.431-17.568,14.431-28.864V100.224C319.57,95.479,315.724,91.633,310.98,91.633z"/>
<path d="M292.653,439.838c-4.744,0-8.591,3.846-8.591,8.591v18.328c0,4.744,3.846,8.591,8.591,8.591
	c4.744,0,8.591-3.846,8.591-8.591v-18.328C301.244,443.684,297.398,439.838,292.653,439.838z"/>
<path d="M251.991,251.418l-16.494-12.37c-4.734-3.551-7.56-9.202-7.56-15.119V100.224c0-4.744-3.846-8.591-8.591-8.591
	s-8.591,3.846-8.591,8.591v123.705c0,11.296,5.395,22.087,14.432,28.864l13.058,9.792v28.262c-5.747,5.06-9.163,12.397-9.163,20.132
	v155.776c0,4.744,3.846,8.591,8.591,8.591c4.744,0,8.591-3.846,8.591-8.591V310.979c0-3.451,1.829-6.577,4.893-8.36
	c2.644-1.538,4.27-4.366,4.27-7.425v-36.903C255.427,255.587,254.155,253.04,251.991,251.418z"/>
<path d="M249.892,91.633c-4.744,0-8.591,3.846-8.591,8.591v109.96c0,4.744,3.846,8.591,8.591,8.591c4.744,0,8.591-3.846,8.591-8.591
	v-109.96C258.482,95.479,254.636,91.633,249.892,91.633z"/>
<path d="M289.026,210.183v-109.96c0-4.744-3.846-8.591-8.591-8.591c-4.744,0-8.591,3.846-8.591,8.591v109.96
	c0,4.744,3.846,8.591,8.591,8.591C285.179,218.774,289.026,214.928,289.026,210.183z"/>
<path d="M416.95,139.182c-2.152-1.623-4.941-2.143-7.533-1.402c-0.754,0.215-18.674,5.508-36.177,25.511
	c-28.264,32.303-34.197,78.212-34.197,111.036v100.796c0,14.842,12.075,26.917,26.917,26.917h0.573v28.063
	c0,4.744,3.846,8.591,8.591,8.591s8.591-3.846,8.591-8.591V393.45c0-4.744-3.846-8.591-8.591-8.591h-9.163
	c-5.369,0-9.736-4.367-9.736-9.736V274.327c0-42.251,10.087-76.422,29.168-98.819c6.312-7.41,12.669-12.414,17.794-15.692v242.798
	c0,4.744,3.846,8.591,8.591,8.591c4.744,0,8.591-3.846,8.591-8.591V146.04C420.367,143.344,419.102,140.806,416.95,139.182z"/>
<path d="M127.714,137.45c-37.58,0-68.152,38.794-68.152,86.479c0,34.9,16.354,65.998,41.235,79.48v33.256
	c-5.747,5.06-9.163,12.397-9.163,20.132v45.817c0,4.744,3.846,8.591,8.591,8.591c4.744,0,8.591-3.846,8.591-8.591v-45.817
	c0-3.451,1.829-6.577,4.893-8.36c2.644-1.538,4.27-4.366,4.27-7.425v-42.991c0-3.452-2.066-6.568-5.246-7.913
	c-21.19-8.958-35.989-36.172-35.989-66.18c0-38.211,22.865-69.298,50.971-69.298s50.971,31.087,50.971,69.298
	c0,30.008-14.799,57.221-35.989,66.18c-3.18,1.345-5.246,4.461-5.246,7.913v42.991c0,3.058,1.626,5.886,4.27,7.425
	c3.064,1.783,4.893,4.909,4.893,8.36v82.47c0,4.744,3.846,8.591,8.591,8.591c4.744,0,8.591-3.846,8.591-8.591v-82.47
	c0-7.735-3.417-15.071-9.163-20.132v-33.256c24.881-13.483,41.235-44.581,41.235-79.48
	C195.866,176.244,165.294,137.45,127.714,137.45z"/>
</svg>