<?xml version="1.0" encoding="iso-8859-1"?>

<!DOCTYPE svg PUBLIC "-//W3C//DTD SVG 1.1//EN" "http://www.w3.org/Graphics/SVG/1.1/DTD/svg11.dtd">
<!-- Uploaded to: SVG Repo, www.svgrepo.com, Generator: SVG Repo Mixer Tools -->
<svg height="800px" width="800px" version="1.1" id="_x35_" xmlns="http://www.w3.org/2000/svg" xmlns:xlink="http://www.w3.org/1999/xlink" 
	 viewBox="0 0 512 512"  xml:space="preserve">
<g>
	<polygon style="fill:#94A580;" points="237.53,102.388 239.832,106.378 222.406,136.562 185.824,199.921 122.46,163.339 
		159.042,99.98 195.624,36.615 197.258,33.78 233.712,95.766 	"/>
	<polygon style="fill:#7FA661;" points="381.765,91.691 381.692,92.27 371.037,216.288 257.747,163.303 278.84,151.199 
		247.6,97.055 243.758,90.385 224.333,57.333 190.556,0 300.657,0 304.426,6.524 316.023,26.602 360.672,103.868 381.33,91.907 	"/>
	<polygon style="fill:#94A580;" points="399.84,334.463 395.234,334.462 377.807,304.278 341.227,240.918 404.59,204.333 
		441.17,267.694 477.754,331.057 479.393,333.89 407.484,334.467 	"/>
	<polygon style="fill:#7FA661;" points="336.953,440.363 449.404,440.359 456.943,440.364 512,345.002 407.131,345.844 
		399.432,345.839 336.947,345.838 336.95,321.5 234.457,393.101 336.958,464.706 	"/>
	<polygon style="fill:#94A580;" points="120.28,365.191 122.584,361.203 157.437,361.202 230.598,361.204 230.6,434.37 
		157.438,434.369 84.272,434.37 80.999,434.373 116.454,371.809 	"/>
	<polygon style="fill:#7FA661;" points="162.941,317.183 141.848,305.006 110.608,359.15 106.767,365.818 59.508,449.318 
		55.087,457.074 38.416,428.226 24.282,403.801 0,361.688 3.769,355.164 60.016,257.748 38.923,245.644 143.95,196.5 
		152.213,192.659 	"/>
</g>
</svg>